<svg width="21" height="20" viewBox="0 0 21 20" fill="none" xmlns="http://www.w3.org/2000/svg">
<path fill-rule="evenodd" clip-rule="evenodd" d="M10.6697 0.25C5.28468 0.25 0.919678 4.615 0.919678 10C0.919678 15.385 5.28468 19.75 10.6697 19.75C16.0547 19.75 20.4197 15.385 20.4197 10C20.4197 4.615 16.0547 0.25 10.6697 0.25ZM8.94968 7.22C8.88102 7.14631 8.79822 7.08721 8.70622 7.04622C8.61422 7.00523 8.5149 6.98318 8.4142 6.98141C8.3135 6.97963 8.21347 6.99816 8.12008 7.03588C8.02669 7.0736 7.94186 7.12974 7.87064 7.20096C7.79942 7.27218 7.74328 7.35701 7.70555 7.4504C7.66783 7.54379 7.64931 7.64382 7.65109 7.74452C7.65286 7.84522 7.6749 7.94454 7.7159 8.03654C7.75689 8.12854 7.81599 8.21134 7.88968 8.28L9.60968 10L7.88968 11.72C7.81599 11.7887 7.75689 11.8715 7.7159 11.9635C7.6749 12.0555 7.65286 12.1548 7.65109 12.2555C7.64931 12.3562 7.66783 12.4562 7.70555 12.5496C7.74328 12.643 7.79942 12.7278 7.87064 12.799C7.94186 12.8703 8.02669 12.9264 8.12008 12.9641C8.21347 13.0018 8.3135 13.0204 8.4142 13.0186C8.5149 13.0168 8.61422 12.9948 8.70622 12.9538C8.79822 12.9128 8.88102 12.8537 8.94968 12.78L10.6697 11.06L12.3897 12.78C12.4583 12.8537 12.5411 12.9128 12.6331 12.9538C12.7251 12.9948 12.8245 13.0168 12.9252 13.0186C13.0259 13.0204 13.1259 13.0018 13.2193 12.9641C13.3127 12.9264 13.3975 12.8703 13.4687 12.799C13.5399 12.7278 13.5961 12.643 13.6338 12.5496C13.6715 12.4562 13.69 12.3562 13.6883 12.2555C13.6865 12.1548 13.6645 12.0555 13.6235 11.9635C13.5825 11.8715 13.5234 11.7887 13.4497 11.72L11.7297 10L13.4497 8.28C13.5234 8.21134 13.5825 8.12854 13.6235 8.03654C13.6645 7.94454 13.6865 7.84522 13.6883 7.74452C13.69 7.64382 13.6715 7.54379 13.6338 7.4504C13.5961 7.35701 13.5399 7.27218 13.4687 7.20096C13.3975 7.12974 13.3127 7.0736 13.2193 7.03588C13.1259 6.99816 13.0259 6.97963 12.9252 6.98141C12.8245 6.98318 12.7251 7.00523 12.6331 7.04622C12.5411 7.08721 12.4583 7.14631 12.3897 7.22L10.6697 8.94L8.94968 7.22Z" fill="#303441" fill-opacity="0.25"/>
</svg>
