<svg width="18" height="19" viewBox="0 0 18 19" fill="none" xmlns="http://www.w3.org/2000/svg">
<path fill-rule="evenodd" clip-rule="evenodd" d="M2.27325 14.7268C2.53875 14.9923 2.85794 15.125 3.23081 15.125H14.7692C15.1421 15.125 15.4613 14.9923 15.7267 14.7268C15.9922 14.4613 16.125 14.1421 16.125 13.7692V11.714C16.125 11.5909 16.0896 11.4818 16.0189 11.3866C15.9483 11.2914 15.8538 11.2264 15.7356 11.1918C15.4067 11.0389 15.1394 10.812 14.9336 10.511C14.7279 10.2101 14.625 9.87325 14.625 9.50037C14.625 9.1275 14.7279 8.79044 14.9336 8.48919C15.1394 8.18806 15.4067 7.96106 15.7356 7.80819C15.8538 7.77356 15.9483 7.70863 16.0189 7.61338C16.0896 7.51825 16.125 7.40912 16.125 7.286V5.23081C16.125 4.85794 15.9922 4.53875 15.7267 4.27325C15.4613 4.00775 15.1421 3.875 14.7692 3.875H3.23081C2.85794 3.875 2.53875 4.00775 2.27325 4.27325C2.00775 4.53875 1.875 4.85794 1.875 5.23081V7.286C1.875 7.40912 1.91038 7.51825 1.98113 7.61338C2.05175 7.70863 2.14619 7.77356 2.26444 7.80819C2.59331 7.96106 2.86062 8.188 3.06637 8.489C3.27212 8.78988 3.375 9.12675 3.375 9.49963C3.375 9.8725 3.27212 10.2096 3.06637 10.5108C2.86062 10.8119 2.59331 11.0389 2.26444 11.1918C2.14619 11.2264 2.05175 11.2914 1.98113 11.3866C1.91038 11.4818 1.875 11.5909 1.875 11.714V13.7692C1.875 14.1421 2.00775 14.4613 2.27325 14.7268ZM14.7692 14H3.23081C3.16344 14 3.10813 13.9784 3.06488 13.9351C3.02163 13.8919 3 13.8366 3 13.7692V12.0875C3.4625 11.8125 3.82813 11.4469 4.09688 10.9906C4.36563 10.5344 4.5 10.0375 4.5 9.5C4.5 8.9625 4.36563 8.46563 4.09688 8.00938C3.82813 7.55313 3.4625 7.1875 3 6.9125V5.23081C3 5.16344 3.02163 5.10813 3.06488 5.06488C3.10813 5.02163 3.16344 5 3.23081 5H14.7692C14.8366 5 14.8919 5.02163 14.9351 5.06488C14.9784 5.10813 15 5.16344 15 5.23081V6.9125C14.5375 7.1875 14.1719 7.55313 13.9031 8.00938C13.6344 8.46563 13.5 8.9625 13.5 9.5C13.5 10.0375 13.6344 10.5344 13.9031 10.9906C14.1719 11.4469 14.5375 11.8125 15 12.0875V13.7692C15 13.8366 14.9784 13.8919 14.9351 13.9351C14.8919 13.9784 14.8366 14 14.7692 14Z" fill="#0066FF"/>
<path fill-rule="evenodd" clip-rule="evenodd" d="M11.2759 12.8285C11.1683 12.9364 11.0347 12.9903 10.8752 12.9903C10.7158 12.9903 10.5822 12.9365 10.4743 12.8289C10.3664 12.7211 10.3125 12.5876 10.3125 12.4282C10.3125 12.2687 10.3664 12.135 10.4741 12.0271C10.5817 11.9193 10.7153 11.8653 10.8748 11.8653C11.0342 11.8653 11.1678 11.9192 11.2757 12.0269C11.3836 12.1346 11.4375 12.2681 11.4375 12.4276C11.4375 12.5871 11.3836 12.7207 11.2759 12.8285ZM11.2759 9.90069C11.1683 10.0086 11.0347 10.0625 10.8752 10.0625C10.7158 10.0625 10.5822 10.0086 10.4743 9.90088C10.3664 9.79325 10.3125 9.65969 10.3125 9.50019C10.3125 9.34081 10.3664 9.20719 10.4741 9.09931C10.5817 8.99144 10.7153 8.9375 10.8748 8.9375C11.0342 8.9375 11.1678 8.99137 11.2757 9.09912C11.3836 9.20675 11.4375 9.34031 11.4375 9.49981C11.4375 9.65919 11.3836 9.79281 11.2759 9.90069ZM11.2759 6.97287C11.1683 7.08075 11.0347 7.13469 10.8752 7.13469C10.7158 7.13469 10.5822 7.08081 10.4743 6.97306C10.3664 6.86544 10.3125 6.73187 10.3125 6.57237C10.3125 6.41287 10.3664 6.27925 10.4741 6.1715C10.5817 6.06362 10.7153 6.00969 10.8748 6.00969C11.0342 6.00969 11.1678 6.0635 11.2757 6.17113C11.3836 6.27888 11.4375 6.41244 11.4375 6.57181C11.4375 6.73131 11.3836 6.865 11.2759 6.97287Z" fill="#0066FF"/>
</svg>
