<svg width="14" height="14" viewBox="0 0 14 14" fill="none" xmlns="http://www.w3.org/2000/svg">
<path d="M12.5419 6.28716L10.1946 8.33579L10.8977 11.3858C10.9349 11.5453 10.9243 11.7121 10.8672 11.8656C10.8101 12.019 10.709 12.1522 10.5766 12.2485C10.4442 12.3449 10.2863 12.4 10.1227 12.4071C9.95916 12.4142 9.79712 12.3729 9.65689 12.2883L6.9967 10.6748L4.34223 12.2883C4.202 12.3729 4.03996 12.4142 3.87638 12.4071C3.71281 12.4 3.55494 12.3449 3.42253 12.2485C3.29012 12.1522 3.18904 12.019 3.13192 11.8656C3.07481 11.7121 3.06419 11.5453 3.1014 11.3858L3.80353 8.33891L1.45563 6.28716C1.33145 6.18006 1.24165 6.03868 1.1975 5.88074C1.15335 5.72281 1.15681 5.55535 1.20745 5.39938C1.25809 5.2434 1.35365 5.10585 1.48215 5.00397C1.61065 4.90209 1.76638 4.84042 1.92979 4.82669L5.02459 4.55864L6.23263 1.67724C6.29571 1.52605 6.40212 1.3969 6.53846 1.30606C6.67479 1.21522 6.83495 1.16675 6.99878 1.16675C7.16261 1.16675 7.32277 1.21522 7.4591 1.30606C7.59544 1.3969 7.70185 1.52605 7.76493 1.67724L8.97662 4.55864L12.0704 4.82669C12.2338 4.84042 12.3895 4.90209 12.518 5.00397C12.6465 5.10585 12.7421 5.2434 12.7927 5.39938C12.8434 5.55535 12.8468 5.72281 12.8027 5.88074C12.7585 6.03868 12.6687 6.18006 12.5445 6.28716H12.5419Z" fill="#0066FF"/>
</svg>
